<?xml version="1.0" encoding="utf-8"?>
<!-- Generator: Adobe Illustrator 16.2.0, SVG Export Plug-In . SVG Version: 6.00 Build 0)  -->
<!DOCTYPE svg PUBLIC "-//W3C//DTD SVG 1.1//EN" "http://www.w3.org/Graphics/SVG/1.1/DTD/svg11.dtd">
<svg version="1.1" id="Layer_1" xmlns="http://www.w3.org/2000/svg" xmlns:xlink="http://www.w3.org/1999/xlink" x="0px" y="0px"
	 width="150px" height="80px" viewBox="0 0 150 80" enable-background="new 0 0 150 80" xml:space="preserve">
<path d="M30.161,47.279V57.6c0,6.961-3.44,10.4-10.4,10.4h-14V11.999h13.84c6.96,0,10.4,3.44,10.4,10.4v8.24
	c0,4.96-1.68,7.44-4.8,8.56C28.561,40.32,30.161,42.72,30.161,47.279z M18.321,19.52h-4.08v16.32h3.76c2.4,0,3.52-1.12,3.52-3.52
	v-9.601C21.521,20.56,20.481,19.52,18.321,19.52z M14.241,60.48h4.24c2.16,0,3.2-1.041,3.2-3.201V46.641
	c0-2.4-1.12-3.521-3.52-3.521h-3.92V60.48z M63.521,68h-8.48l-1.12-8.801h-8.88L44,68h-7.92l8-56.081h11.36L63.521,68z M46,51.6
	h6.96l-3.44-28L46,51.6z M94.081,48.959v9.121c0,6.961-3.44,10.4-10.4,10.4H79.92c-6.959,0-10.32-3.439-10.32-10.32V46.32h8.32
	v11.52c0,2.16,1.041,3.201,3.281,3.201h1.119c2.24,0,3.28-1.041,3.28-3.201v-7.68c0-2.32-0.8-3.361-2.399-4.561l-8.641-6.32
	c-3.84-2.72-4.96-5.36-4.96-9.68v-7.68c0-6.96,3.44-10.4,10.4-10.4h3.601c6.88,0,10.32,3.44,10.32,10.32V32h-8.4v-9.84
	c0-2.16-1.04-3.2-3.2-3.2h-1.039c-2.16,0-3.201,1.04-3.201,3.2v6.24c0,2.32,0.801,3.44,2.4,4.56l8.641,6.32
	C92.881,42,94.081,44.4,94.081,48.959z M110.56,68H102V11.999h8.56V68z M136.398,39.68L144.239,68h-8.8l-4.721-20.08L125.679,68
	h-8.24l7.841-27.6l-7.681-28.401h8.8l4.641,20l4.8-20h8.24L136.398,39.68z"/>
</svg>
